<svg width="109" height="83" viewBox="0 0 109 83" fill="none" xmlns="http://www.w3.org/2000/svg">
<rect x="9.9292" y="0.831291" width="99" height="69" rx="5" transform="rotate(7.50362 9.9292 0.831291)" fill="#5C5252"/>
<path d="M46.7266 27.8828C47.5859 27.8828 48.2891 28.0234 48.8359 28.3047C49.3984 28.5703 49.8438 28.9609 50.1719 29.4766C50.5 29.9766 50.7266 30.5781 50.8516 31.2812C50.9766 31.9844 51.0391 32.7578 51.0391 33.6016C51.0391 34.3047 51 35.0547 50.9219 35.8516C50.8594 36.6328 50.7891 37.4453 50.7109 38.2891C50.5078 40.2266 50.3359 42.1328 50.1953 44.0078C50.0703 45.8828 50.0078 47.7188 50.0078 49.5156C50.0078 51.5312 50.1016 53.3516 50.2891 54.9766C50.4922 56.5859 50.8125 58.0469 51.25 59.3594C51.7031 60.6719 52.2969 61.8438 53.0312 62.875C53.7656 63.9219 54.6719 64.8672 55.75 65.7109C55.9219 65.8516 56.0547 65.9609 56.1484 66.0391C56.2422 66.1328 56.2891 66.2422 56.2891 66.3672C56.2891 66.5703 56.1484 66.6719 55.8672 66.6719C55.7109 66.6719 55.5391 66.6406 55.3516 66.5781C54.2734 66.1719 53.1562 65.5781 52 64.7969C50.8438 64.0156 49.7891 63 48.8359 61.75C47.8828 60.5 47.0938 58.9766 46.4688 57.1797C45.8594 55.3984 45.5547 53.2891 45.5547 50.8516C45.5547 49.1953 45.6094 47.5547 45.7188 45.9297C45.8281 44.3047 45.9453 42.7734 46.0703 41.3359C46.2109 39.8828 46.3359 38.5547 46.4453 37.3516C46.5547 36.1328 46.6094 35.0938 46.6094 34.2344C46.6094 33.7656 46.5703 33.3984 46.4922 33.1328C46.4141 32.8672 46.3125 32.6719 46.1875 32.5469C46.0781 32.4062 45.9453 32.3203 45.7891 32.2891C45.6328 32.2578 45.4844 32.2422 45.3438 32.2422C45.1562 32.2422 44.9688 32.3047 44.7812 32.4297C44.5938 32.5547 44.4062 32.7891 44.2188 33.1328C44.0312 33.4766 43.8438 33.9453 43.6562 34.5391C43.4844 35.1172 43.3203 35.875 43.1641 36.8125C43.0547 37.3906 42.9297 38.0859 42.7891 38.8984C42.6641 39.7109 42.5156 40.5781 42.3438 41.5C42.1875 42.4219 42.0234 43.3672 41.8516 44.3359C41.6953 45.2891 41.5391 46.1953 41.3828 47.0547C41.2422 47.9141 41.1016 48.6953 40.9609 49.3984C40.8359 50.0859 40.7266 50.625 40.6328 51.0156C40.2422 52.6719 39.7344 53.8828 39.1094 54.6484C38.5 55.4141 37.7266 55.7969 36.7891 55.7969C36.1016 55.7969 35.5547 55.6406 35.1484 55.3281C34.7578 55.0156 34.4609 54.625 34.2578 54.1562C34.0547 53.6875 33.9297 53.1797 33.8828 52.6328C33.8359 52.0703 33.8125 51.5469 33.8125 51.0625C33.8125 47.9219 33.8516 44.8438 33.9297 41.8281C34.0078 38.8125 34.0469 35.7891 34.0469 32.7578C34.0469 31.6328 34.0156 30.625 33.9531 29.7344C33.8906 28.8438 33.7578 28.0938 33.5547 27.4844C33.3516 26.8594 33.0703 26.3828 32.7109 26.0547C32.3516 25.7109 31.8828 25.5391 31.3047 25.5391C30.7578 25.5391 30.2812 25.8594 29.875 26.5C29.4844 27.125 29.1562 27.9844 28.8906 29.0781C28.625 30.1719 28.4219 31.4609 28.2812 32.9453C28.1406 34.4297 28.0469 36.0234 28 37.7266C27.9688 38.8984 27.9375 40.0938 27.9062 41.3125C27.8906 42.5312 27.8594 43.7188 27.8125 44.875C27.7656 46.0156 27.7031 47.1016 27.625 48.1328C27.5469 49.1484 27.4531 50.0625 27.3438 50.875C27.2344 52.2812 27.1016 53.4453 26.9453 54.3672C26.8047 55.2734 26.6797 55.9609 26.5703 56.4297C26.4766 56.8359 26.3125 57.1172 26.0781 57.2734C25.8438 57.4297 25.5781 57.5312 25.2812 57.5781C25 57.625 24.7109 57.6484 24.4141 57.6484C24.1172 57.6484 23.8594 57.6953 23.6406 57.7891C23.375 57.8984 23.1016 57.9531 22.8203 57.9531C22.5547 57.9531 22.3281 57.8906 22.1406 57.7656C21.9688 57.6406 21.8828 57.4219 21.8828 57.1094C21.8828 57 21.8906 56.9062 21.9062 56.8281C21.9375 56.6406 22 56.2344 22.0938 55.6094C22.2031 54.9844 22.3203 54.2344 22.4453 53.3594C22.5859 52.4688 22.7266 51.4922 22.8672 50.4297C23.0078 49.3672 23.1328 48.2969 23.2422 47.2188C23.3516 46.1406 23.4453 45.0938 23.5234 44.0781C23.6016 43.0625 23.6406 42.1641 23.6406 41.3828C23.6406 40.0859 23.5938 38.9453 23.5 37.9609C23.4219 36.9609 23.3125 36.0781 23.1719 35.3125C23.0312 34.5312 22.8594 33.8359 22.6562 33.2266C22.4688 32.6016 22.2656 32.0156 22.0469 31.4688C21.8281 30.9062 21.6016 30.3516 21.3672 29.8047C21.1484 29.2422 20.9297 28.6328 20.7109 27.9766C20.4297 27.1328 20.2266 26.3047 20.1016 25.4922C19.9922 24.6641 19.9375 23.8672 19.9375 23.1016C19.9375 22.3203 19.9844 21.5938 20.0781 20.9219C20.1875 20.2344 20.3203 19.6406 20.4766 19.1406C20.6484 18.6406 20.8281 18.25 21.0156 17.9688C21.2031 17.6719 21.3828 17.5234 21.5547 17.5234C21.7578 17.5234 21.9141 17.6484 22.0234 17.8984C22.1328 18.1484 22.1875 18.4531 22.1875 18.8125C22.1875 18.9375 22.1797 19.0859 22.1641 19.2578C22.1641 19.4297 22.1641 19.6328 22.1641 19.8672C22.1641 20.2578 22.1875 20.7344 22.2344 21.2969C22.2812 21.8438 22.3906 22.4844 22.5625 23.2188C22.7344 23.9375 22.9844 24.7422 23.3125 25.6328C23.6406 26.5234 24.0859 27.5 24.6484 28.5625C24.8984 29.0312 25.125 29.5 25.3281 29.9688C25.5312 30.4219 25.7188 30.875 25.8906 31.3281C26.1719 29.9062 26.5391 28.6797 26.9922 27.6484C27.4609 26.6172 27.9609 25.7422 28.4922 25.0234C29.0234 24.3047 29.5703 23.7188 30.1328 23.2656C30.6953 22.8125 31.2344 22.4688 31.75 22.2344C32.2656 21.9844 32.7266 21.8203 33.1328 21.7422C33.5391 21.6484 33.8594 21.6016 34.0938 21.6016C34.75 21.6016 35.3125 21.7812 35.7812 22.1406C36.25 22.5 36.6484 23 36.9766 23.6406C37.3203 24.2656 37.5938 25.0078 37.7969 25.8672C38.0156 26.7109 38.1797 27.625 38.2891 28.6094C38.4141 29.5781 38.4922 30.5938 38.5234 31.6562C38.5703 32.7031 38.5938 33.7422 38.5938 34.7734C38.5938 36.9141 38.5547 38.7656 38.4766 40.3281C38.4141 41.875 38.3359 43.2266 38.2422 44.3828C38.1641 45.5234 38.0859 46.5078 38.0078 47.3359C37.9453 48.1484 37.9141 48.8906 37.9141 49.5625C37.9141 49.7344 37.9453 49.8672 38.0078 49.9609C38.0859 50.0547 38.1719 50.1016 38.2656 50.1016C38.4219 50.1016 38.5547 50.0312 38.6641 49.8906C38.7734 49.75 38.8828 49.4453 38.9922 48.9766C39.1172 48.4922 39.25 47.7891 39.3906 46.8672C39.5469 45.9453 39.75 44.7031 40 43.1406C40.2031 41.8438 40.3906 40.5703 40.5625 39.3203C40.7344 38.0703 40.9219 36.8828 41.125 35.7578C41.3438 34.6172 41.5938 33.5703 41.875 32.6172C42.1562 31.6484 42.5078 30.8203 42.9297 30.1328C43.3672 29.4297 43.8906 28.8828 44.5 28.4922C45.1094 28.0859 45.8516 27.8828 46.7266 27.8828ZM81.9297 27.8828C82.7891 27.8828 83.4922 28.0234 84.0391 28.3047C84.6016 28.5703 85.0469 28.9609 85.375 29.4766C85.7031 29.9766 85.9297 30.5781 86.0547 31.2812C86.1797 31.9844 86.2422 32.7578 86.2422 33.6016C86.2422 34.3047 86.2031 35.0547 86.125 35.8516C86.0625 36.6328 85.9922 37.4453 85.9141 38.2891C85.7109 40.2266 85.5391 42.1328 85.3984 44.0078C85.2734 45.8828 85.2109 47.7188 85.2109 49.5156C85.2109 51.5312 85.3047 53.3516 85.4922 54.9766C85.6953 56.5859 86.0156 58.0469 86.4531 59.3594C86.9062 60.6719 87.5 61.8438 88.2344 62.875C88.9688 63.9219 89.875 64.8672 90.9531 65.7109C91.125 65.8516 91.2578 65.9609 91.3516 66.0391C91.4453 66.1328 91.4922 66.2422 91.4922 66.3672C91.4922 66.5703 91.3516 66.6719 91.0703 66.6719C90.9141 66.6719 90.7422 66.6406 90.5547 66.5781C89.4766 66.1719 88.3594 65.5781 87.2031 64.7969C86.0469 64.0156 84.9922 63 84.0391 61.75C83.0859 60.5 82.2969 58.9766 81.6719 57.1797C81.0625 55.3984 80.7578 53.2891 80.7578 50.8516C80.7578 49.1953 80.8125 47.5547 80.9219 45.9297C81.0312 44.3047 81.1484 42.7734 81.2734 41.3359C81.4141 39.8828 81.5391 38.5547 81.6484 37.3516C81.7578 36.1328 81.8125 35.0938 81.8125 34.2344C81.8125 33.7656 81.7734 33.3984 81.6953 33.1328C81.6172 32.8672 81.5156 32.6719 81.3906 32.5469C81.2812 32.4062 81.1484 32.3203 80.9922 32.2891C80.8359 32.2578 80.6875 32.2422 80.5469 32.2422C80.3594 32.2422 80.1719 32.3047 79.9844 32.4297C79.7969 32.5547 79.6094 32.7891 79.4219 33.1328C79.2344 33.4766 79.0469 33.9453 78.8594 34.5391C78.6875 35.1172 78.5234 35.875 78.3672 36.8125C78.2578 37.3906 78.1328 38.0859 77.9922 38.8984C77.8672 39.7109 77.7188 40.5781 77.5469 41.5C77.3906 42.4219 77.2266 43.3672 77.0547 44.3359C76.8984 45.2891 76.7422 46.1953 76.5859 47.0547C76.4453 47.9141 76.3047 48.6953 76.1641 49.3984C76.0391 50.0859 75.9297 50.625 75.8359 51.0156C75.4453 52.6719 74.9375 53.8828 74.3125 54.6484C73.7031 55.4141 72.9297 55.7969 71.9922 55.7969C71.3047 55.7969 70.7578 55.6406 70.3516 55.3281C69.9609 55.0156 69.6641 54.625 69.4609 54.1562C69.2578 53.6875 69.1328 53.1797 69.0859 52.6328C69.0391 52.0703 69.0156 51.5469 69.0156 51.0625C69.0156 47.9219 69.0547 44.8438 69.1328 41.8281C69.2109 38.8125 69.25 35.7891 69.25 32.7578C69.25 31.6328 69.2188 30.625 69.1562 29.7344C69.0938 28.8438 68.9609 28.0938 68.7578 27.4844C68.5547 26.8594 68.2734 26.3828 67.9141 26.0547C67.5547 25.7109 67.0859 25.5391 66.5078 25.5391C65.9609 25.5391 65.4844 25.8594 65.0781 26.5C64.6875 27.125 64.3594 27.9844 64.0938 29.0781C63.8281 30.1719 63.625 31.4609 63.4844 32.9453C63.3438 34.4297 63.25 36.0234 63.2031 37.7266C63.1719 38.8984 63.1406 40.0938 63.1094 41.3125C63.0938 42.5312 63.0625 43.7188 63.0156 44.875C62.9688 46.0156 62.9062 47.1016 62.8281 48.1328C62.75 49.1484 62.6562 50.0625 62.5469 50.875C62.4375 52.2812 62.3047 53.4453 62.1484 54.3672C62.0078 55.2734 61.8828 55.9609 61.7734 56.4297C61.6797 56.8359 61.5156 57.1172 61.2812 57.2734C61.0469 57.4297 60.7812 57.5312 60.4844 57.5781C60.2031 57.625 59.9141 57.6484 59.6172 57.6484C59.3203 57.6484 59.0625 57.6953 58.8438 57.7891C58.5781 57.8984 58.3047 57.9531 58.0234 57.9531C57.7578 57.9531 57.5312 57.8906 57.3438 57.7656C57.1719 57.6406 57.0859 57.4219 57.0859 57.1094C57.0859 57 57.0938 56.9062 57.1094 56.8281C57.1406 56.6406 57.2031 56.2344 57.2969 55.6094C57.4062 54.9844 57.5234 54.2344 57.6484 53.3594C57.7891 52.4688 57.9297 51.4922 58.0703 50.4297C58.2109 49.3672 58.3359 48.2969 58.4453 47.2188C58.5547 46.1406 58.6484 45.0938 58.7266 44.0781C58.8047 43.0625 58.8438 42.1641 58.8438 41.3828C58.8438 40.0859 58.7969 38.9453 58.7031 37.9609C58.625 36.9609 58.5156 36.0781 58.375 35.3125C58.2344 34.5312 58.0625 33.8359 57.8594 33.2266C57.6719 32.6016 57.4688 32.0156 57.25 31.4688C57.0312 30.9062 56.8047 30.3516 56.5703 29.8047C56.3516 29.2422 56.1328 28.6328 55.9141 27.9766C55.6328 27.1328 55.4297 26.3047 55.3047 25.4922C55.1953 24.6641 55.1406 23.8672 55.1406 23.1016C55.1406 22.3203 55.1875 21.5938 55.2812 20.9219C55.3906 20.2344 55.5234 19.6406 55.6797 19.1406C55.8516 18.6406 56.0312 18.25 56.2188 17.9688C56.4062 17.6719 56.5859 17.5234 56.7578 17.5234C56.9609 17.5234 57.1172 17.6484 57.2266 17.8984C57.3359 18.1484 57.3906 18.4531 57.3906 18.8125C57.3906 18.9375 57.3828 19.0859 57.3672 19.2578C57.3672 19.4297 57.3672 19.6328 57.3672 19.8672C57.3672 20.2578 57.3906 20.7344 57.4375 21.2969C57.4844 21.8438 57.5938 22.4844 57.7656 23.2188C57.9375 23.9375 58.1875 24.7422 58.5156 25.6328C58.8438 26.5234 59.2891 27.5 59.8516 28.5625C60.1016 29.0312 60.3281 29.5 60.5312 29.9688C60.7344 30.4219 60.9219 30.875 61.0938 31.3281C61.375 29.9062 61.7422 28.6797 62.1953 27.6484C62.6641 26.6172 63.1641 25.7422 63.6953 25.0234C64.2266 24.3047 64.7734 23.7188 65.3359 23.2656C65.8984 22.8125 66.4375 22.4688 66.9531 22.2344C67.4688 21.9844 67.9297 21.8203 68.3359 21.7422C68.7422 21.6484 69.0625 21.6016 69.2969 21.6016C69.9531 21.6016 70.5156 21.7812 70.9844 22.1406C71.4531 22.5 71.8516 23 72.1797 23.6406C72.5234 24.2656 72.7969 25.0078 73 25.8672C73.2188 26.7109 73.3828 27.625 73.4922 28.6094C73.6172 29.5781 73.6953 30.5938 73.7266 31.6562C73.7734 32.7031 73.7969 33.7422 73.7969 34.7734C73.7969 36.9141 73.7578 38.7656 73.6797 40.3281C73.6172 41.875 73.5391 43.2266 73.4453 44.3828C73.3672 45.5234 73.2891 46.5078 73.2109 47.3359C73.1484 48.1484 73.1172 48.8906 73.1172 49.5625C73.1172 49.7344 73.1484 49.8672 73.2109 49.9609C73.2891 50.0547 73.375 50.1016 73.4688 50.1016C73.625 50.1016 73.7578 50.0312 73.8672 49.8906C73.9766 49.75 74.0859 49.4453 74.1953 48.9766C74.3203 48.4922 74.4531 47.7891 74.5938 46.8672C74.75 45.9453 74.9531 44.7031 75.2031 43.1406C75.4062 41.8438 75.5938 40.5703 75.7656 39.3203C75.9375 38.0703 76.125 36.8828 76.3281 35.7578C76.5469 34.6172 76.7969 33.5703 77.0781 32.6172C77.3594 31.6484 77.7109 30.8203 78.1328 30.1328C78.5703 29.4297 79.0938 28.8828 79.7031 28.4922C80.3125 28.0859 81.0547 27.8828 81.9297 27.8828Z" fill="#FAF9F6"/>
</svg>
